# AST/ASF file generated using VICON BodyLanguage
# -----------------------------------------------
:version 1.10
:name VICON
:units
  mass 1.0
  length 0.45
  angle deg
:documentation
   .ast/.asf automatically generated from VICON data using
   VICON BodyBuilder and BodyLanguage model FoxedUp or BRILLIANT.MOD
:root
   order TX TY TZ RX RY RZ
   axis XYZ
   position 0 0 0  
   orientation 0 0 0 
:bonedata
  begin
     id 1 
     name lhipjoint
     direction 0.547975 -0.797114 0.253638 
     length 2.36201 
     axis 0 0 0  XYZ
  end
  begin
     id 2 
     name lfemur
     direction 0.34202 -0.939693 0  
     length 7.69075  
     axis 0 0 20  XYZ
    dof rx ry rz
    limits (-160.0 20.0)
           (-70.0 70.0)
           (-60.0 70.0)
  end
  begin
     id 3 
     name ltibia
     direction 0.34202 -0.939693 0   
     length 7.91399   
     axis 0 0 20   XYZ
    dof rx
    limits (-10.0 170.0)
  end
  begin
     id 4 
     name lfoot
     direction 0.0705293 -0.193778 0.978507   
     length 2.13618   
     axis -90 7.62852e-016 20   XYZ
    dof rx rz
    limits (-45.0 90.0)
           (-70.0 20.0)
  end
  begin
     id 5 
     name ltoes
     direction 1.53592e-011 -4.21925e-011 1   
     length 1.07518   
     axis -90 7.62852e-016 20   XYZ
    dof rx
    limits (-90.0 20.0)
  end
  begin
     id 6 
     name rhipjoint
     direction -0.57 -0.782963 0.249136   
     length 2.4047  
     axis 0 0 0  XYZ 
  end
  begin
     id 7 
     name rfemur
     direction -0.34202 -0.939693 0   
     length 7.51486   
     axis 0 0 -20   XYZ
    dof rx ry rz
    limits (-160.0 20.0)
           (-70.0 70.0)
           (-70.0 60.0)
  end
  begin
     id 8 
     name rtibia
     direction -0.34202 -0.939693 0   
     length 8.08317   
     axis 0 0 -20   XYZ
    dof rx
    limits (-10.0 170.0)
 end
 begin
     id 9 
     name rfoot
     direction -0.104954 -0.281256 0.953876   
     length 2.30343  
     axis -90 -7.62852e-016 -20   XYZ
    dof rx rz
    limits (-45.0 90.0)
           (-20.0 70.0)
  end
  begin
     id 10 
     name rtoes
     direction -1.53556e-011 -4.21922e-011 1   
     length 1.14803   
     axis -90 -7.62852e-016 -20   XYZ
    dof rx
    limits (-90.0 20.0)
  end
  begin
     id 11 
     name lowerback
     direction -0.0152855 0.99353 -0.11254   
     length 2.05311   
     axis 0 0 0   XYZ
    dof rx ry rz
    limits (-20.0 45.0)
           (-30.0 30.0)
           (-30.0 30.0)
  end
  begin
     id 12 
     name upperback
     direction -0.00157509 0.999443 -0.033332   
     length 2.06353   
     axis 0 0 0   XYZ
    dof rx ry rz
    limits (-20.0 45.0)
           (-30.0 30.0)
           (-30.0 30.0)
  end
  begin
     id 13 
     name thorax
     direction 0.00577788 0.999804 0.0189484   
     length 2.08472   
     axis 0 0 0   XYZ
    dof rx ry rz
    limits (-20.0 45.0)
           (-30.0 30.0)
           (-30.0 30.0)
  end
  begin
     id 14 
     name lowerneck
     direction -1.09301e-005 0.994719 0.10264   
     length 1.76249   
     axis 0 0 0   XYZ
    dof rx ry rz
    limits (-20.0 45.0)
           (-30.0 30.0)
           (-30.0 30.0)
  end
  begin
     id 15 
     name upperneck
     direction 0.0495018 0.988526 -0.142706   
     length 1.77897   
     axis 0 0 0   XYZ
    dof rx ry rz
    limits (-20.0 45.0)
           (-30.0 30.0)
           (-30.0 30.0)
  end
  begin
     id 16
     name head
     direction 0.0142736 0.998114 -0.0597101  
     length 1.78934  
     axis 0 0 0   XYZ
    dof rx ry rz
    limits (-20.0 45.0)
           (-30.0 30.0)
           (-30.0 30.0)
  end
  begin
     id 17 
     name lclavicle
     direction 0.918111 0.396107 -0.0130883  
     length 3.37276  
     axis 0 0 0   XYZ
    dof ry rz
    limits (-20.0 10.0)
           (0.0 20.0)
  end
  begin
     id 18 
     name lhumerus
     direction 1 -4.48975e-011 -3.26108e-027   
     length 5.34298   
     axis 180 -30 -90   XYZ
    dof rx ry rz
    limits (-60.0 90.0)
           (-90.0 90.0)
           (-90.0 90.0)
  end
  begin
     id 19
     name lradius
     direction 1 -4.48964e-011 -8.84413e-028   
     length 3.67262   
     axis 180 -30 -90   XYZ
    dof rx
    limits (-10.0 170.0)
  end
  begin
     id 20
     name lwrist
     direction 1 -4.48991e-011 -1.24264e-027   
     length 1.83631   
     axis -2.17013e-015 90 90   XYZ
    dof ry
    limits (-180.0 0.0)
 end
  begin
     id 21 
     name lhand
     direction 1 -4.48855e-011 -2.48528e-027   
     length 0.599298   
     axis 1.58582e-015 90 90   XYZ
    dof rx rz
    limits (-90.0 90.0)
           (-45.0 45.0)
  end
  begin
     id 22 
     name lfingers
     direction 1 -4.48811e-011 -4.97056e-027   
     length 0.48317   
     axis 3.17164e-015 90 90   XYZ
    dof rx
    limits (0.0 90.0)
  end
  begin
     id 23
     name lthumb
     direction 0.707107 -6.34882e-011 0.707107   
     length 0.693738   
     axis -90 45 2.85299e-015   XYZ
    dof rx rz
    limits (-45.0 45.0)
           (-45.0 45.0)
  end
  begin
     id 24 
     name rclavicle
     direction -0.920511 0.384752 -0.0680135   
     length 3.43787  
     axis 0 0 0   XYZ 
    dof ry rz
    limits (-10.0 20.0)
           (-20.0 0.0)
  end
  begin
     id 25 
     name rhumerus
     direction -0.999976 -0.00330524 0.00603274  
     length 5.5498   
     axis 180 30 90   XYZ
    dof rx ry rz
    limits (-90.0 60.0)
           (-90.0 90.0)
           (-90.0 90.0)
  end
  begin
     id 26 
     name rradius
     direction -1 -4.48967e-011 8.62438e-027   
     length 3.69401   
     axis 180 30 90   XYZ
    dof rx
    limits (-10.0 170.0)
  end
  begin
     id 27 
     name rwrist
     direction -1 -4.4897e-011 9.54866e-027   
     length 1.84701   
     axis -7.69462e-015 -90 -90   XYZ
    dof ry
    limits (-180.0 0.0)
  end
  begin
     id 28
     name rhand
     direction -1 -4.48982e-011 1.90973e-026   
     length 0.638113   
     axis -1.21857e-014 -90 -90   XYZ
    dof rx rz
    limits (-90.0 90.0)
           (-45.0 45.0)
  end
  begin
     id 29
     name rfingers
     direction -1 -4.48936e-011 3.81946e-026   
     length 0.514463   
     axis -2.43714e-014 -90 -90   XYZ
    dof rx
    limits (0.0 90.0)
  end
  begin
     id 30
     name rthumb
     direction -0.707107 -6.34942e-011 0.707107   
     length 0.738669   
     axis -90 -45 -2.85299e-015   XYZ
    dof rx rz
    limits (-45.0 45.0)
           (-45.0 45.0)
  end
:hierarchy
  begin
    root lhipjoint rhipjoint lowerback
    lhipjoint lfemur
    lfemur ltibia
    ltibia lfoot
    lfoot ltoes
    rhipjoint rfemur
    rfemur rtibia
    rtibia rfoot
    rfoot rtoes
    lowerback upperback
    upperback thorax
    thorax lowerneck lclavicle rclavicle
    lowerneck upperneck
    upperneck head
    lclavicle lhumerus
    lhumerus lradius
    lradius lwrist
    lwrist lhand lthumb
    lhand lfingers
    rclavicle rhumerus
    rhumerus rradius
    rradius rwrist
    rwrist rhand rthumb
    rhand rfingers
  end

#!OML:ASF F:\twosubjects\two\Thursday\Session 1\Rory.ASF
:FULLY-SPECIFIED
:DEGREES
49
root 9.30438 16.9338 8.02201 -107.831 -85.5196 112.223
lowerback 5.58174 -1.84939 -3.49447
upperback -2.063 -2.89277 -2.28721
thorax -5.22434 -1.37211 -0.126783
lowerneck -8.42793 -5.26826 -5.5344
upperneck 10.6095 -7.52751 8.43804
head 5.10092 -3.44549 2.97935
rclavicle 4.0726e-014 2.78299e-015
rhumerus 48.2607 -52.9955 -12.6421
rradius 77.7728
rwrist -8.4855
rhand -39.2548 39.0915
rfingers 7.12502
rthumb -12.2493 9.47024
lclavicle 4.0726e-014 2.78299e-015
lhumerus 55.5111 54.0968 12.9817
lradius 76.1175
lwrist 12.8926
lhand -20.6401 36.4345
lfingers 7.12502
lthumb 5.72184 66.3373
rfemur -13.5692 20.7514 -8.65825
rtibia 36.2236
rfoot -18.9198 -8.06543
rtoes -46.6189
lfemur -6.72955 -9.76007 0.111958
ltibia 30.6549
lfoot -20.937 -4.63318
ltoes -28.041
50
root 9.35053 16.788 8.02908 -108.633 -85.4455 112.272
lowerback 6.79268 -1.88193 -3.78802
upperback -1.88443 -3.01194 -2.20036
thorax -5.70542 -1.40966 0.180994
lowerneck -8.20808 -5.12438 -5.58212
upperneck 10.1011 -7.28186 8.38483
head 4.88925 -3.34074 2.99847
rclavicle 7.90169e-015 1.55052e-014
rhumerus 49.248 -52.7321 -12.9946
rradius 78.1835
rwrist -9.65233
rhand -39.0893 39.7241
rfingers 7.12502
rthumb -12.0897 10.0934
lclavicle 7.90169e-015 1.55052e-014
lhumerus 55.909 54.2234 13.3835
lradius 76.6283
lwrist 12.7131
lhand -20.9957 36.7215
lfingers 7.12502
lthumb 5.37851 66.6332
rfemur -13.6768 20.736 -8.37263
rtibia 37.8683
rfoot -20.2718 -9.97802
rtoes -47.1971
lfemur -6.67127 -9.23485 -0.102296
ltibia 32.0443
lfoot -22.9967 -3.70452
ltoes -28.1171
51
root 9.39558 16.661 8.03156 -108.608 -85.2314 111.297
lowerback 8.18969 -1.76502 -4.1231
upperback -1.60245 -2.96152 -2.24696
thorax -6.19323 -1.36558 0.360105
lowerneck -8.21383 -5.1439 -5.7795
upperneck 9.72123 -7.27171 8.56433
head 4.78708 -3.33635 3.08892
rclavicle 1.01877e-015 -7.55382e-015
rhumerus 49.4521 -52.6683 -12.7495
rradius 78.5116
rwrist -10.5718
rhand -39.0945 39.5835
rfingers 7.12502
rthumb -12.0948 9.95304
lclavicle 1.01877e-015 -7.55382e-015
lhumerus 56.7778 54.2282 14.353
lradius 76.8177
lwrist 12.2918
lhand -22.1751 37.4971
lfingers 7.12502
lthumb 4.23967 67.4346
rfemur -13.4084 21.0223 -8.20677
rtibia 39.2451
rfoot -21.5178 -11.5131
rtoes -46.8384
lfemur -6.37599 -9.14274 -0.511806
ltibia 33.2995
lfoot -24.7356 -3.35448
ltoes -25.4995
52
root 9.43547 16.5603 8.03648 -109.421 -85.5121 111.318
lowerback 9.31846 -1.70928 -3.75412
upperback -1.28613 -2.90484 -2.33221
thorax -6.52553 -1.34851 0.0925846
lowerneck -8.27673 -5.21944 -5.80433
upperneck 9.22997 -7.37887 8.96257
head 4.67215 -3.37374 3.20913
rclavicle 2.16427e-014 1.98785e-014
rhumerus 49.5721 -52.7297 -13.0227
rradius 78.8241
rwrist -10.8665
rhand -39.2277 38.6068
rfingers 7.12502
rthumb -12.2232 8.98399
lclavicle 2.16427e-014 1.98785e-014
lhumerus 57.684 54.1447 15.2801
lradius 76.7986
lwrist 11.5231
lhand -23.1237 38.5748
lfingers 7.12502
lthumb 3.3236 68.5287
rfemur -13.0602 21.4028 -7.58155
rtibia 40.2055
rfoot -22.7215 -12.1838
rtoes -45.6817
lfemur -6.19254 -8.9538 -0.279935
ltibia 34.3071
lfoot -25.871 -3.18085
ltoes -24.4047
53
root 9.45969 16.4875 8.04211 -106.863 -85.6923 108.336
lowerback 9.77225 -1.78026 -3.68293
upperback -1.01391 -3.00368 -2.3134
thorax -6.49473 -1.40167 0.0988914
lowerneck -8.14332 -5.24666 -5.81948
upperneck 8.51633 -7.36952 9.05861
head 4.43596 -3.37756 3.24925
rclavicle 3.79927e-014 -2.38542e-015
rhumerus 49.9034 -52.6822 -13.4668
rradius 78.3557
rwrist -10.359
rhand -39.5489 37.8327
rfingers 7.12502
rthumb -12.5329 8.22857
lclavicle 3.79927e-014 -2.38542e-015
lhumerus 57.7959 54.143 15.8188
lradius 76.6227
lwrist 11.048
lhand -22.6033 38.0281
lfingers 7.12502
lthumb 3.82624 67.9735
rfemur -12.7069 21.4504 -7.2823
rtibia 40.6859
rfoot -23.705 -12.5484
rtoes -44.311
lfemur -6.27845 -8.98226 -0.184072
ltibia 34.9881
lfoot -26.7801 -2.57046
ltoes -25.6294
54
root 9.47012 16.4437 8.05324 -102.937 -85.5278 104.279
lowerback 9.73363 -1.89274 -4.00556
upperback -0.891671 -3.18482 -2.30218
thorax -6.32117 -1.48401 0.313853
lowerneck -7.58236 -5.22121 -5.82693
upperneck 7.61265 -7.27572 8.99397
head 4.05853 -3.3618 3.25671
rclavicle 1.90088e-014 5.12864e-014
rhumerus 50.1037 -52.3126 -13.7859
rradius 77.2758
rwrist -9.88126
rhand -39.6828 37.1528
rfingers 7.12502
rthumb -12.662 7.55657
lclavicle 1.90088e-014 5.12864e-014
lhumerus 56.9014 54.0399 15.7314
lradius 76.3373
lwrist 11.037
lhand -22.0819 37.2151
lfingers 7.12502
lthumb 4.32971 67.1508
rfemur -12.4043 21.1651 -7.4894
rtibia 40.7078
rfoot -24.002 -13.3876
rtoes -44.7036
lfemur -6.42063 -9.52466 -0.511597
ltibia 35.3351
lfoot -27.4393 -1.83419
ltoes -27.4297
55
root 9.47188 16.4366 8.06866 -101.675 -85.5644 103.102
lowerback 9.36668 -1.95802 -3.96644
upperback -0.800505 -3.23619 -2.24612
thorax -6.01318 -1.51643 0.341736
lowerneck -7.16781 -5.26025 -5.88047
upperneck 6.83346 -7.28588 9.06589
head 3.75979 -3.3869 3.30244
rclavicle -2.78299e-014 -2.38542e-014
rhumerus 50.2021 -51.9323 -14.4371
rradius 76.3786
rwrist -9.63891
rhand -39.3855 36.0608
rfingers 7.12502
rthumb -12.3754 6.44712
lclavicle -2.78299e-014 -2.38542e-014
lhumerus 55.558 53.8217 15.4136
lradius 75.8813
lwrist 11.0523
lhand -22.0497 37.9694
lfingers 7.12502
lthumb 4.36078 67.9045
rfemur -12.2338 20.9344 -7.52957
rtibia 40.3483
rfoot -23.8108 -14.1346
rtoes -45.7593
lfemur -6.52389 -10.2322 -0.576738
ltibia 35.3548
lfoot -27.7959 -1.1202
ltoes -29.9439
